<?xml version="1.0" encoding="UTF-8"?>
<svg id="Layer_2" data-name="Layer 2" xmlns="http://www.w3.org/2000/svg" viewBox="0 0 170 120.68">
  <defs>
    <style>
      .cls-1 {
        fill: #6b7357;
      }
    </style>
  </defs>
  <g id="Layer_1-2" data-name="Layer 1">
    <g>
      <g>
        <path class="cls-1" d="m6.88,96.98H0c.21-3,.31-6.91.31-11.75v-1.38c0-4.82-.1-8.73-.31-11.75h6.26c2.95,0,5.32.49,7.11,1.47,1.79.98,2.68,2.38,2.68,4.2,0,1.68-.59,3.02-1.76,4.01-1.18.99-2.64,1.52-4.39,1.59,2.4.07,4.39.69,5.98,1.85,1.59,1.16,2.38,2.8,2.38,4.89,0,2.28-1.04,4-3.13,5.15-2.09,1.15-4.83,1.73-8.24,1.73Zm-.8-24.24h-2.84c-.12,5.12-.17,8.55-.17,10.3h2.25c1.11,0,2.08-.07,2.91-.21.83-.14,1.64-.38,2.44-.73.79-.35,1.41-.87,1.83-1.57.42-.7.64-1.58.64-2.65,0-3.43-2.35-5.15-7.05-5.15Zm-2.84,23.51h3.56c2.86,0,4.97-.5,6.33-1.49,1.36-.99,2.04-2.57,2.04-4.74,0-2.28-.79-3.9-2.35-4.86-1.57-.96-4.08-1.44-7.54-1.44h-2.21v.87c0,1.94.06,5.82.17,11.65Z"/>
        <path class="cls-1" d="m23.86,96.98h-2.32c.39-.37,1.05-1.51,1.97-3.42l10.03-21.64h.55l9.47,21.23c.41.85.77,1.54,1.07,2.08.3.53.53.93.71,1.19.17.26.29.45.36.57h-4.56c.14-.62-.03-1.51-.52-2.66l-2.52-5.91-11.1.17-2.49,5.77c-.55,1.22-.77,2.1-.66,2.63Zm8.75-21.5l-5.15,12.03,10.37.28-5.22-12.31Z"/>
        <path class="cls-1" d="m57.95,96.98h-6.88c.21-3,.31-6.91.31-11.75v-1.38c0-4.82-.1-8.73-.31-11.75h6.26c2.95,0,5.32.49,7.11,1.47,1.79.98,2.68,2.38,2.68,4.2,0,1.68-.59,3.02-1.76,4.01-1.17.99-2.64,1.52-4.39,1.59,2.4.07,4.39.69,5.98,1.85,1.59,1.16,2.38,2.8,2.38,4.89,0,2.28-1.04,4-3.13,5.15-2.09,1.15-4.84,1.73-8.25,1.73Zm-.8-24.24h-2.83c-.12,5.12-.17,8.55-.17,10.3h2.25c1.11,0,2.07-.07,2.9-.21.83-.14,1.64-.38,2.44-.73.79-.35,1.41-.87,1.83-1.57.43-.7.64-1.58.64-2.65,0-3.43-2.35-5.15-7.05-5.15Zm-2.83,23.51h3.56c2.86,0,4.97-.5,6.33-1.49,1.36-.99,2.04-2.57,2.04-4.74,0-2.28-.78-3.9-2.35-4.86-1.57-.96-4.08-1.44-7.54-1.44h-2.21v.87c0,1.94.06,5.82.17,11.65Z"/>
        <path class="cls-1" d="m98.16,86.34c0,3.73-1.04,6.52-3.13,8.35-2.09,1.83-4.74,2.75-7.97,2.75-1.52,0-2.95-.21-4.27-.62-1.33-.41-2.53-1.04-3.6-1.88-1.07-.84-1.92-1.99-2.54-3.44-.62-1.45-.93-3.12-.93-5.01v-2.7c0-3.64-.11-7.54-.35-11.69h3.94c-.23,4.15-.35,8.05-.35,11.69v2.7c0,3.32.81,5.78,2.44,7.38,1.62,1.6,3.69,2.4,6.21,2.4,1.22,0,2.37-.18,3.44-.55,1.07-.37,2.06-.93,2.97-1.69.91-.76,1.63-1.8,2.16-3.11.53-1.31.8-2.83.8-4.56v-2.56c0-4.06-.1-7.95-.31-11.69h1.87c-.25,4.56-.38,8.46-.38,11.69v2.56Z"/>
        <path class="cls-1" d="m114.06,96.98h-7.61c.16-5.05.24-8.97.24-11.75v-1.38c0-3.69-.08-7.6-.24-11.75h3.25c-.14,5.67-.21,9.47-.21,11.41v.62c0,1.66.04,4.02.1,7.09.07,3.07.1,4.75.1,5.05h4.36c2.01,0,3.52-.06,4.55-.19,1.02-.12,1.75-.3,2.16-.54.41-.23.88-.61,1.38-1.14l.31.1-.35,1.69c-.21.83-.39,1.24-.55,1.24-.23-.18-.76-.31-1.61-.36-.84-.06-2.8-.09-5.89-.09Z"/>
        <path class="cls-1" d="m126.75,96.98h-2.32c.39-.37,1.05-1.51,1.97-3.42l10.03-21.64h.55l9.47,21.23c.42.85.77,1.54,1.07,2.08.3.53.54.93.71,1.19.17.26.29.45.36.57h-4.56c.14-.62-.04-1.51-.52-2.66l-2.52-5.91-11.1.17-2.49,5.77c-.55,1.22-.77,2.1-.66,2.63Zm8.75-21.5l-5.15,12.03,10.37.28-5.22-12.31Z"/>
        <path class="cls-1" d="m161.6,96.98h-7.61c.16-5.05.24-8.97.24-11.75v-1.38c0-3.69-.08-7.6-.24-11.75h3.25c-.14,5.67-.21,9.47-.21,11.41v.62c0,1.66.03,4.02.1,7.09.07,3.07.1,4.75.1,5.05h4.36c2.01,0,3.52-.06,4.55-.19,1.02-.12,1.74-.3,2.16-.54.41-.23.88-.61,1.38-1.14l.31.1-.35,1.69c-.21.83-.39,1.24-.55,1.24-.23-.18-.77-.31-1.61-.36-.84-.06-2.81-.09-5.9-.09Z"/>
      </g>
      <g>
        <path class="cls-1" d="m94.08,34.36c-1.02-1.55-2.3-2.38-3.85-2.47,1.13-.09,2.07-.8,2.83-2.12.76-1.32,1.13-3.11,1.13-5.35,0-2.43-.57-4.3-1.72-5.6-1.15-1.31-2.67-1.96-4.57-1.96h-4.03c.1,3.03.16,6.75.19,11.14h-1.35c-2.22,0-3.84-.64-4.85-1.92-1.01-1.28-1.51-3.44-1.51-6.48s.44-5,1.31-6.32c.88-1.32,2.23-1.98,4.07-1.98h4.35c0-.33.02-.66.03-.97h-4.43c-2.19,0-3.96.77-5.3,2.31-1.34,1.54-2.01,3.83-2.01,6.87,0,2.8.51,4.97,1.53,6.53,1.02,1.55,2.31,2.38,3.85,2.47-1.13.09-2.07.8-2.82,2.12-.75,1.32-1.13,3.11-1.13,5.35,0,2.43.57,4.3,1.72,5.6,1.15,1.31,2.67,1.96,4.57,1.96h1.93s1.9,0,1.9,0c-.04-4.75-.06-11.14-.06-11.14h1.42c2.22,0,3.84.64,4.85,1.92,1.01,1.28,1.51,3.44,1.51,6.48s-.44,5-1.31,6.32c-.88,1.32-2.23,1.98-4.07,1.98h-4.35c0,.33-.02.66-.03.97h4.42c2.2,0,3.96-.77,5.3-2.31,1.34-1.54,2.01-3.83,2.01-6.87,0-2.8-.51-4.97-1.53-6.53Zm-10.05,8.26s0,.03,0,.04h-1.82c-3.02,0-4.54-2.29-4.54-6.87,0-1.41.14-2.59.41-3.53.27-.94.67-1.64,1.18-2.1.51-.46,1.03-.78,1.57-.97.53-.19,1.16-.28,1.87-.28h1.37c0,1.17,0,11.23-.04,13.71h0Zm3.27-11.15h-1.45c0-2.34.04-6.92.11-13.75h1.82c3.02,0,4.54,2.29,4.54,6.87,0,1.41-.14,2.59-.41,3.53-.28.94-.67,1.64-1.18,2.1-.51.46-1.03.78-1.57.97-.53.18-1.16.28-1.87.28Z"/>
        <path class="cls-1" d="m85,60.39c-11.63,0-21.1-13.55-21.1-30.2S73.37,0,85,0s21.1,13.55,21.1,30.2-9.47,30.2-21.1,30.2Zm0-58.91c-10.82,0-19.62,12.88-19.62,28.72s8.8,28.72,19.62,28.72,19.62-12.88,19.62-28.72S95.82,1.48,85,1.48Z"/>
        <path class="cls-1" d="m99.81,31.89c0,.73-.6,1.33-1.33,1.33s-1.33-.6-1.33-1.33.6-1.33,1.33-1.33,1.33.6,1.33,1.33Z"/>
        <path class="cls-1" d="m72.85,28.5c0,.73-.6,1.33-1.33,1.33s-1.33-.6-1.33-1.33.59-1.33,1.33-1.33,1.33.6,1.33,1.33Z"/>
      </g>
      <g>
        <path class="cls-1" d="m49.16,120.68l-.07-.14c.45-.25.77-.49.96-.71.2-.22.35-.58.46-1.1s.17-1.25.17-2.21l.06-3.34v-.16c0-1.41-.05-2.72-.14-3.92h1.58c-.1.54-.15,1.84-.15,3.92l.05,3.5c0,1.04-.25,1.89-.74,2.54-.49.64-1.22,1.18-2.17,1.61Z"/>
        <path class="cls-1" d="m57.71,117.41h-2.86c.06-1.08.09-2.39.09-3.92v-.46c0-1.52-.03-2.83-.09-3.92h2.94c1.34,0,2.03-.05,2.08-.15.07,0,.12.07.16.21l.15.7-.1.05c-.16-.21-.4-.34-.7-.41-.31-.07-.83-.1-1.57-.1h-1.5c-.06,1.11-.09,2.25-.09,3.42h.43c.28,0,.66-.02,1.16-.06.5-.04.8-.07.92-.08-.02.18-.02.28-.02.29,0,.08,0,.17.02.28-1.03-.09-1.72-.14-2.08-.14h-.43c0,.65.03,1.98.08,4h1.42c1,0,1.66-.04,1.98-.12.32-.08.58-.25.77-.5l.08.04-.12.61c-.05.25-.1.39-.13.4,0,0-.02.01-.03.01-.1-.08-.26-.12-.48-.13-.22-.01-.92-.02-2.07-.02Z"/>
        <path class="cls-1" d="m73.94,109.11h.8c-.17.22-.37.61-.61,1.16l-3.09,7.24h-.2l-2.81-6.66-2.77,6.66h-.17l-2.81-6.72c-.41-.91-.7-1.47-.86-1.68h1.88c-.06.11.04.51.3,1.19l2.09,5.46,2.82-6.8h.17l2.82,6.64,2.18-5.5c.23-.57.32-.9.26-.99Z"/>
        <path class="cls-1" d="m79.3,117.41h-2.86c.06-1.08.09-2.39.09-3.92v-.46c0-1.52-.03-2.83-.09-3.92h2.94c1.34,0,2.03-.05,2.07-.15.07,0,.12.07.16.21l.15.7-.1.05c-.16-.21-.4-.34-.7-.41-.31-.07-.83-.1-1.57-.1h-1.5c-.06,1.11-.09,2.25-.09,3.42h.43c.28,0,.66-.02,1.16-.06.5-.04.8-.07.92-.08-.02.18-.02.28-.02.29,0,.08,0,.17.02.28-1.03-.09-1.72-.14-2.07-.14h-.43c0,.65.03,1.98.08,4h1.42c1,0,1.66-.04,1.98-.12.32-.08.58-.25.77-.5l.08.04-.12.61c-.05.25-.1.39-.13.4,0,0-.02.01-.04.01-.1-.08-.26-.12-.48-.13-.22-.01-.91-.02-2.07-.02Z"/>
        <path class="cls-1" d="m86.93,117.41h-2.89c.06-1.08.09-2.39.09-3.92v-.46c0-1.52-.03-2.83-.09-3.92h1.45c-.06,1.23-.09,2.5-.09,3.83v.23c0,.6.03,1.91.08,3.93h1.46c.65,0,1.14-.02,1.48-.07.34-.05.59-.11.74-.19.15-.08.31-.21.49-.4l.11.04-.13.67c-.06.28-.12.41-.19.41-.08-.06-.25-.1-.53-.12-.28-.02-.94-.03-1.99-.03Z"/>
        <path class="cls-1" d="m94.35,117.41h-2.89c.06-1.08.09-2.39.09-3.92v-.46c0-1.52-.03-2.83-.09-3.92h1.45c-.06,1.23-.09,2.5-.09,3.83v.23c0,.6.03,1.91.08,3.93h1.46c.65,0,1.14-.02,1.48-.07.34-.05.59-.11.74-.19.15-.08.31-.21.49-.4l.12.04-.13.67c-.06.28-.12.41-.18.41-.08-.06-.25-.1-.53-.12-.28-.02-.94-.03-1.99-.03Z"/>
        <path class="cls-1" d="m101.74,117.41h-2.86c.06-1.08.09-2.39.09-3.92v-.46c0-1.52-.03-2.83-.09-3.92h2.94c1.34,0,2.03-.05,2.07-.15.07,0,.12.07.16.21l.15.7-.1.05c-.16-.21-.4-.34-.7-.41-.31-.07-.83-.1-1.57-.1h-1.5c-.06,1.11-.09,2.25-.09,3.42h.43c.28,0,.66-.02,1.16-.06.5-.04.8-.07.92-.08-.02.18-.02.28-.02.29,0,.08,0,.17.02.28-1.03-.09-1.72-.14-2.07-.14h-.43c0,.65.03,1.98.08,4h1.42c1,0,1.66-.04,1.98-.12.32-.08.58-.25.77-.5l.08.04-.12.61c-.05.25-.1.39-.13.4,0,0-.02.01-.03.01-.1-.08-.26-.12-.48-.13-.22-.01-.91-.02-2.08-.02Z"/>
        <path class="cls-1" d="m107.87,113.65c0,1.61.05,2.87.15,3.76h-1.59c.1-.83.15-2.14.15-3.92v-.46c0-1.92-.05-3.23-.15-3.92h2.17c1.23,0,2.17.17,2.82.51.65.34.97.91.97,1.7,0,1.22-.76,1.97-2.29,2.24.42.07.79.22,1.09.47.31.24.6.6.87,1.08l.28.5c.61,1.15,1.16,1.73,1.65,1.73v.06c-.23.1-.53.15-.89.15-.51,0-.91-.12-1.23-.36-.31-.24-.65-.71-1.02-1.41l-.25-.47c-.32-.59-.6-1.01-.86-1.25-.26-.25-.59-.37-1.01-.38h-.86Zm.69-4.24h-.66l-.04,3.94h.83c.8,0,1.38-.18,1.75-.54.37-.36.55-.86.55-1.49,0-.67-.2-1.15-.61-1.46-.41-.31-1.02-.46-1.83-.46Z"/>
        <path class="cls-1" d="m117.84,109.34c-.55,0-.98.11-1.29.32-.32.21-.47.52-.47.94,0,.34.15.64.46.91.31.27.84.57,1.6.9l.68.29c1.4.62,2.1,1.43,2.1,2.43,0,.83-.29,1.44-.86,1.84-.57.4-1.33.59-2.28.59-.65,0-1.32-.13-1.99-.4-.29-.11-.51-.17-.65-.17l-.23-1.31.14-.05c.33.54.74.94,1.23,1.19.49.26.99.38,1.52.38.61,0,1.1-.13,1.47-.39.38-.26.56-.64.56-1.13,0-.74-.69-1.41-2.08-2.02l-.74-.3c-.68-.29-1.19-.62-1.52-.98-.33-.36-.49-.78-.49-1.27,0-.65.24-1.17.73-1.55.49-.38,1.22-.57,2.21-.57.46,0,.86.05,1.21.15.35.1.61.2.81.3.19.1.33.15.4.15l.23,1.21-.13.03c-.3-.55-.66-.95-1.08-1.18-.41-.21-.92-.32-1.53-.32Z"/>
      </g>
    </g>
  </g>
</svg>